[2024-08-21 15:38:41 +0800] [155260] [INFO] Starting gunicorn 23.0.0
[2024-08-21 15:38:41 +0800] [155260] [INFO] Listening at: http://0.0.0.0:8000 (155260)
[2024-08-21 15:38:41 +0800] [155260] [INFO] Using worker: sync
[2024-08-21 15:38:41 +0800] [155265] [INFO] Booting worker with pid: 155265
[2024-08-21 15:38:41 +0800] [155266] [INFO] Booting worker with pid: 155266
[2024-08-21 15:38:41 +0800] [155267] [INFO] Booting worker with pid: 155267
[2024-08-21 15:38:41 +0800] [155268] [INFO] Booting worker with pid: 155268
ffmpeg version 4.4.2-0ubuntu0.22.04.1 Copyright (c) 2000-2021 the FFmpeg developers
  built with gcc 11 (Ubuntu 11.2.0-19ubuntu1)
  configuration: --prefix=/usr --extra-version=0ubuntu0.22.04.1 --toolchain=hardened --libdir=/usr/lib/x86_64-linux-gnu --incdir=/usr/include/x86_64-linux-gnu --arch=amd64 --enable-gpl --disable-stripping --enable-gnutls --enable-ladspa --enable-libaom --enable-libass --enable-libbluray --enable-libbs2b --enable-libcaca --enable-libcdio --enable-libcodec2 --enable-libdav1d --enable-libflite --enable-libfontconfig --enable-libfreetype --enable-libfribidi --enable-libgme --enable-libgsm --enable-libjack --enable-libmp3lame --enable-libmysofa --enable-libopenjpeg --enable-libopenmpt --enable-libopus --enable-libpulse --enable-librabbitmq --enable-librubberband --enable-libshine --enable-libsnappy --enable-libsoxr --enable-libspeex --enable-libsrt --enable-libssh --enable-libtheora --enable-libtwolame --enable-libvidstab --enable-libvorbis --enable-libvpx --enable-libwebp --enable-libx265 --enable-libxml2 --enable-libxvid --enable-libzimg --enable-libzmq --enable-libzvbi --enable-lv2 --enable-omx --enable-openal --enable-opencl --enable-opengl --enable-sdl2 --enable-pocketsphinx --enable-librsvg --enable-libmfx --enable-libdc1394 --enable-libdrm --enable-libiec61883 --enable-chromaprint --enable-frei0r --enable-libx264 --enable-shared
  libavutil      56. 70.100 / 56. 70.100
  libavcodec     58.134.100 / 58.134.100
  libavformat    58. 76.100 / 58. 76.100
  libavdevice    58. 13.100 / 58. 13.100
  libavfilter     7.110.100 /  7.110.100
  libswscale      5.  9.100 /  5.  9.100
  libswresample   3.  9.100 /  3.  9.100
  libpostproc    55.  9.100 / 55.  9.100
[mp3 @ 0x55e0741556c0] Estimating duration from bitrate, this may be inaccurate
Input #0, mp3, from './tmp/origin_temp_voice_2_text.mp3':
  Duration: 00:00:06.12, start: 0.000000, bitrate: 128 kb/s
  Stream #0:0: Audio: mp3, 48000 Hz, mono, fltp, 128 kb/s
Stream mapping:
  Stream #0:0 -> #0:0 (mp3 (mp3float) -> mp3 (libmp3lame))
Press [q] to stop, [?] for help
Output #0, mp3, to './tmp/convert_temp_voice_2_text.mp3':
  Metadata:
    TSSE            : Lavf58.76.100
  Stream #0:0: Audio: mp3, 16000 Hz, mono, fltp, 128 kb/s
    Metadata:
      encoder         : Lavc58.134.100 libmp3lame
size=       1kB time=00:00:00.00 bitrate=N/A speed=   0x    size=      97kB time=00:00:06.08 bitrate= 131.0kbits/s speed= 182x    
video:0kB audio:97kB subtitle:0kB other streams:0kB global headers:0kB muxing overhead: 0.626817%
ffmpeg version 4.4.2-0ubuntu0.22.04.1 Copyright (c) 2000-2021 the FFmpeg developers
  built with gcc 11 (Ubuntu 11.2.0-19ubuntu1)
  configuration: --prefix=/usr --extra-version=0ubuntu0.22.04.1 --toolchain=hardened --libdir=/usr/lib/x86_64-linux-gnu --incdir=/usr/include/x86_64-linux-gnu --arch=amd64 --enable-gpl --disable-stripping --enable-gnutls --enable-ladspa --enable-libaom --enable-libass --enable-libbluray --enable-libbs2b --enable-libcaca --enable-libcdio --enable-libcodec2 --enable-libdav1d --enable-libflite --enable-libfontconfig --enable-libfreetype --enable-libfribidi --enable-libgme --enable-libgsm --enable-libjack --enable-libmp3lame --enable-libmysofa --enable-libopenjpeg --enable-libopenmpt --enable-libopus --enable-libpulse --enable-librabbitmq --enable-librubberband --enable-libshine --enable-libsnappy --enable-libsoxr --enable-libspeex --enable-libsrt --enable-libssh --enable-libtheora --enable-libtwolame --enable-libvidstab --enable-libvorbis --enable-libvpx --enable-libwebp --enable-libx265 --enable-libxml2 --enable-libxvid --enable-libzimg --enable-libzmq --enable-libzvbi --enable-lv2 --enable-omx --enable-openal --enable-opencl --enable-opengl --enable-sdl2 --enable-pocketsphinx --enable-librsvg --enable-libmfx --enable-libdc1394 --enable-libdrm --enable-libiec61883 --enable-chromaprint --enable-frei0r --enable-libx264 --enable-shared
  libavutil      56. 70.100 / 56. 70.100
  libavcodec     58.134.100 / 58.134.100
  libavformat    58. 76.100 / 58. 76.100
  libavdevice    58. 13.100 / 58. 13.100
  libavfilter     7.110.100 /  7.110.100
  libswscale      5.  9.100 /  5.  9.100
  libswresample   3.  9.100 /  3.  9.100
  libpostproc    55.  9.100 / 55.  9.100
[mp3 @ 0x55a7e10986c0] Estimating duration from bitrate, this may be inaccurate
Input #0, mp3, from './tmp/origin_temp_voice_2_text.mp3':
  Duration: 00:00:08.28, start: 0.000000, bitrate: 128 kb/s
  Stream #0:0: Audio: mp3, 48000 Hz, mono, fltp, 128 kb/s
Stream mapping:
  Stream #0:0 -> #0:0 (mp3 (mp3float) -> mp3 (libmp3lame))
Press [q] to stop, [?] for help
Output #0, mp3, to './tmp/convert_temp_voice_2_text.mp3':
  Metadata:
    TSSE            : Lavf58.76.100
  Stream #0:0: Audio: mp3, 16000 Hz, mono, fltp, 128 kb/s
    Metadata:
      encoder         : Lavc58.134.100 libmp3lame
size=       1kB time=00:00:00.00 bitrate=N/A speed=N/A    size=     131kB time=00:00:08.24 bitrate= 130.2kbits/s speed= 178x    
video:0kB audio:130kB subtitle:0kB other streams:0kB global headers:0kB muxing overhead: 0.464709%
ffmpeg version 4.4.2-0ubuntu0.22.04.1 Copyright (c) 2000-2021 the FFmpeg developers
  built with gcc 11 (Ubuntu 11.2.0-19ubuntu1)
  configuration: --prefix=/usr --extra-version=0ubuntu0.22.04.1 --toolchain=hardened --libdir=/usr/lib/x86_64-linux-gnu --incdir=/usr/include/x86_64-linux-gnu --arch=amd64 --enable-gpl --disable-stripping --enable-gnutls --enable-ladspa --enable-libaom --enable-libass --enable-libbluray --enable-libbs2b --enable-libcaca --enable-libcdio --enable-libcodec2 --enable-libdav1d --enable-libflite --enable-libfontconfig --enable-libfreetype --enable-libfribidi --enable-libgme --enable-libgsm --enable-libjack --enable-libmp3lame --enable-libmysofa --enable-libopenjpeg --enable-libopenmpt --enable-libopus --enable-libpulse --enable-librabbitmq --enable-librubberband --enable-libshine --enable-libsnappy --enable-libsoxr --enable-libspeex --enable-libsrt --enable-libssh --enable-libtheora --enable-libtwolame --enable-libvidstab --enable-libvorbis --enable-libvpx --enable-libwebp --enable-libx265 --enable-libxml2 --enable-libxvid --enable-libzimg --enable-libzmq --enable-libzvbi --enable-lv2 --enable-omx --enable-openal --enable-opencl --enable-opengl --enable-sdl2 --enable-pocketsphinx --enable-librsvg --enable-libmfx --enable-libdc1394 --enable-libdrm --enable-libiec61883 --enable-chromaprint --enable-frei0r --enable-libx264 --enable-shared
  libavutil      56. 70.100 / 56. 70.100
  libavcodec     58.134.100 / 58.134.100
  libavformat    58. 76.100 / 58. 76.100
  libavdevice    58. 13.100 / 58. 13.100
  libavfilter     7.110.100 /  7.110.100
  libswscale      5.  9.100 /  5.  9.100
  libswresample   3.  9.100 /  3.  9.100
  libpostproc    55.  9.100 / 55.  9.100
[mp3 @ 0x55e8b4aa36c0] Estimating duration from bitrate, this may be inaccurate
Input #0, mp3, from './tmp/origin_temp_voice_2_text.mp3':
  Duration: 00:00:09.14, start: 0.000000, bitrate: 128 kb/s
  Stream #0:0: Audio: mp3, 48000 Hz, mono, fltp, 128 kb/s
Stream mapping:
  Stream #0:0 -> #0:0 (mp3 (mp3float) -> mp3 (libmp3lame))
Press [q] to stop, [?] for help
Output #0, mp3, to './tmp/convert_temp_voice_2_text.mp3':
  Metadata:
    TSSE            : Lavf58.76.100
  Stream #0:0: Audio: mp3, 16000 Hz, mono, fltp, 128 kb/s
    Metadata:
      encoder         : Lavc58.134.100 libmp3lame
size=       1kB time=00:00:00.00 bitrate=N/A speed=N/A    size=     145kB time=00:00:09.11 bitrate= 130.0kbits/s speed= 187x    
video:0kB audio:144kB subtitle:0kB other streams:0kB global headers:0kB muxing overhead: 0.421143%
ffmpeg version 4.4.2-0ubuntu0.22.04.1 Copyright (c) 2000-2021 the FFmpeg developers
  built with gcc 11 (Ubuntu 11.2.0-19ubuntu1)
  configuration: --prefix=/usr --extra-version=0ubuntu0.22.04.1 --toolchain=hardened --libdir=/usr/lib/x86_64-linux-gnu --incdir=/usr/include/x86_64-linux-gnu --arch=amd64 --enable-gpl --disable-stripping --enable-gnutls --enable-ladspa --enable-libaom --enable-libass --enable-libbluray --enable-libbs2b --enable-libcaca --enable-libcdio --enable-libcodec2 --enable-libdav1d --enable-libflite --enable-libfontconfig --enable-libfreetype --enable-libfribidi --enable-libgme --enable-libgsm --enable-libjack --enable-libmp3lame --enable-libmysofa --enable-libopenjpeg --enable-libopenmpt --enable-libopus --enable-libpulse --enable-librabbitmq --enable-librubberband --enable-libshine --enable-libsnappy --enable-libsoxr --enable-libspeex --enable-libsrt --enable-libssh --enable-libtheora --enable-libtwolame --enable-libvidstab --enable-libvorbis --enable-libvpx --enable-libwebp --enable-libx265 --enable-libxml2 --enable-libxvid --enable-libzimg --enable-libzmq --enable-libzvbi --enable-lv2 --enable-omx --enable-openal --enable-opencl --enable-opengl --enable-sdl2 --enable-pocketsphinx --enable-librsvg --enable-libmfx --enable-libdc1394 --enable-libdrm --enable-libiec61883 --enable-chromaprint --enable-frei0r --enable-libx264 --enable-shared
  libavutil      56. 70.100 / 56. 70.100
  libavcodec     58.134.100 / 58.134.100
  libavformat    58. 76.100 / 58. 76.100
  libavdevice    58. 13.100 / 58. 13.100
  libavfilter     7.110.100 /  7.110.100
  libswscale      5.  9.100 /  5.  9.100
  libswresample   3.  9.100 /  3.  9.100
  libpostproc    55.  9.100 / 55.  9.100
[mp3 @ 0x55a726e7d6c0] Estimating duration from bitrate, this may be inaccurate
Input #0, mp3, from './tmp/origin_temp_voice_2_text.mp3':
  Duration: 00:00:01.22, start: 0.000000, bitrate: 128 kb/s
  Stream #0:0: Audio: mp3, 48000 Hz, mono, fltp, 128 kb/s
Stream mapping:
  Stream #0:0 -> #0:0 (mp3 (mp3float) -> mp3 (libmp3lame))
Press [q] to stop, [?] for help
Output #0, mp3, to './tmp/convert_temp_voice_2_text.mp3':
  Metadata:
    TSSE            : Lavf58.76.100
  Stream #0:0: Audio: mp3, 16000 Hz, mono, fltp, 128 kb/s
    Metadata:
      encoder         : Lavc58.134.100 libmp3lame
size=       1kB time=00:00:00.00 bitrate=N/A speed=   0x    size=      21kB time=00:00:01.19 bitrate= 143.5kbits/s speed= 121x    
video:0kB audio:20kB subtitle:0kB other streams:0kB global headers:0kB muxing overhead: 2.994792%
ffmpeg version 4.4.2-0ubuntu0.22.04.1 Copyright (c) 2000-2021 the FFmpeg developers
  built with gcc 11 (Ubuntu 11.2.0-19ubuntu1)
  configuration: --prefix=/usr --extra-version=0ubuntu0.22.04.1 --toolchain=hardened --libdir=/usr/lib/x86_64-linux-gnu --incdir=/usr/include/x86_64-linux-gnu --arch=amd64 --enable-gpl --disable-stripping --enable-gnutls --enable-ladspa --enable-libaom --enable-libass --enable-libbluray --enable-libbs2b --enable-libcaca --enable-libcdio --enable-libcodec2 --enable-libdav1d --enable-libflite --enable-libfontconfig --enable-libfreetype --enable-libfribidi --enable-libgme --enable-libgsm --enable-libjack --enable-libmp3lame --enable-libmysofa --enable-libopenjpeg --enable-libopenmpt --enable-libopus --enable-libpulse --enable-librabbitmq --enable-librubberband --enable-libshine --enable-libsnappy --enable-libsoxr --enable-libspeex --enable-libsrt --enable-libssh --enable-libtheora --enable-libtwolame --enable-libvidstab --enable-libvorbis --enable-libvpx --enable-libwebp --enable-libx265 --enable-libxml2 --enable-libxvid --enable-libzimg --enable-libzmq --enable-libzvbi --enable-lv2 --enable-omx --enable-openal --enable-opencl --enable-opengl --enable-sdl2 --enable-pocketsphinx --enable-librsvg --enable-libmfx --enable-libdc1394 --enable-libdrm --enable-libiec61883 --enable-chromaprint --enable-frei0r --enable-libx264 --enable-shared
  libavutil      56. 70.100 / 56. 70.100
  libavcodec     58.134.100 / 58.134.100
  libavformat    58. 76.100 / 58. 76.100
  libavdevice    58. 13.100 / 58. 13.100
  libavfilter     7.110.100 /  7.110.100
  libswscale      5.  9.100 /  5.  9.100
  libswresample   3.  9.100 /  3.  9.100
  libpostproc    55.  9.100 / 55.  9.100
[mp3 @ 0x555e2fa436c0] Estimating duration from bitrate, this may be inaccurate
Input #0, mp3, from './tmp/origin_temp_voice_2_text.mp3':
  Duration: 00:00:04.18, start: 0.000000, bitrate: 128 kb/s
  Stream #0:0: Audio: mp3, 48000 Hz, mono, fltp, 128 kb/s
Stream mapping:
  Stream #0:0 -> #0:0 (mp3 (mp3float) -> mp3 (libmp3lame))
Press [q] to stop, [?] for help
Output #0, mp3, to './tmp/convert_temp_voice_2_text.mp3':
  Metadata:
    TSSE            : Lavf58.76.100
  Stream #0:0: Audio: mp3, 16000 Hz, mono, fltp, 128 kb/s
    Metadata:
      encoder         : Lavc58.134.100 libmp3lame
size=       1kB time=00:00:00.00 bitrate=N/A speed=   0x    size=      67kB time=00:00:04.14 bitrate= 132.4kbits/s speed= 175x    
video:0kB audio:66kB subtitle:0kB other streams:0kB global headers:0kB muxing overhead: 0.913665%
clean history cache
trans text: 从前，有一只小乌龟，它总是觉得自己的壳又重又硬，非常麻烦。有一天，它决定把壳脱下来，丢进了附近的小河里。不久后，小熊在河边玩耍时发现了这个龟壳。
------>开始发送文本数据
ws is closed
### error: on_close() takes 1 positional argument but 3 were given
user_prompt: 我需要给3-8岁的孩子讲故事。请扩充并讲述这个故事<小乌龟觉得自己的壳很麻烦，所以把壳丢进了河里，小熊发现龟壳可以吹笛，小鸟发现龟壳可以作为自己的巢。他们都感谢小乌龟，小乌龟觉得很开心”，我希望通过这个故事，教育孩子“不要歧视别人”、“珍惜自己的特点”>
在故事中，设计互动点1：<小熊可以用壳做什么>，互动点2：<小鸟可以用壳做什么>.
每一次扩充在250字以内，并且不论互动点1和2如何反馈，都能够传达教育信息。
在互动点中，尽量将孩子的任何回答嵌入故事的发展，假如该回答完全无法嵌入故事，或者与问题毫无关系，请再重复一次互动点处生成的问题。
假如孩子对讲故事这一活动本身有强烈的抗拒，请用耐心的语气劝导，并重复互动点生成的问题。
现在讲述到互动点1时，你需要停下，等待我的反馈。你的回复应当以json格式返回，格式为 {"key":value,...,"key":value} ：
1.故事续写的剧情文本对应的json标签名称为story 
2.互动点1提出的问题文本对应json标签为interact 
3.不要出现括号包含的暗示提示性文本
4.动物、人物不要出现出现名字，直接使用名词
story index: 1 chapter index: 1
before context:[]
after context:[{'role': 'user', 'content': '我需要给3-8岁的孩子讲故事。请扩充并讲述这个故事<小乌龟觉得自己的壳很麻烦，所以把壳丢进了河里，小熊发现龟壳可以吹笛，小鸟发现龟壳可以作为自己的巢。他们都感谢小乌龟，小乌龟觉得很开心”，我希望通过这个故事，教育孩子“不要歧视别人”、“珍惜自己的特点”>\n在故事中，设计互动点1：<小熊可以用壳做什么>，互动点2：<小鸟可以用壳做什么>.\n每一次扩充在250字以内，并且不论互动点1和2如何反馈，都能够传达教育信息。\n在互动点中，尽量将孩子的任何回答嵌入故事的发展，假如该回答完全无法嵌入故事，或者与问题毫无关系，请再重复一次互动点处生成的问题。\n假如孩子对讲故事这一活动本身有强烈的抗拒，请用耐心的语气劝导，并重复互动点生成的问题。\n现在讲述到互动点1时，你需要停下，等待我的反馈。你的回复应当以json格式返回，格式为 {"key":value,...,"key":value} ：\n1.故事续写的剧情文本对应的json标签名称为story \n2.互动点1提出的问题文本对应json标签为interact \n3.不要出现括号包含的暗示提示性文本\n4.动物、人物不要出现出现名字，直接使用名词'}, {'role': 'assistant', 'content': '{"story":"从前，有一只小乌龟，它总是觉得自己的壳又重又硬，非常麻烦。有一天，它决定把壳悄悄丢进了河里。不久，小熊在河边玩耍时发现了这个龟壳。", "interact":"小朋友们，你们觉得小熊会用这个龟壳来做些什么有趣的事情呢？"}'}]
clean history cache
user_prompt: 我需要给3-8岁的孩子讲故事。请扩充并讲述这个故事<小乌龟觉得自己的壳很麻烦，所以把壳丢进了河里，小熊发现龟壳可以吹笛，小鸟发现龟壳可以作为自己的巢。他们都感谢小乌龟，小乌龟觉得很开心”，我希望通过这个故事，教育孩子“不要歧视别人”、“珍惜自己的特点”>
在故事中，设计互动点1：<小熊可以用壳做什么>，互动点2：<小鸟可以用壳做什么>.
每一次扩充在250字以内，并且不论互动点1和2如何反馈，都能够传达教育信息。
在互动点中，尽量将孩子的任何回答嵌入故事的发展，假如该回答完全无法嵌入故事，或者与问题毫无关系，请再重复一次互动点处生成的问题。
假如孩子对讲故事这一活动本身有强烈的抗拒，请用耐心的语气劝导，并重复互动点生成的问题。
现在讲述到互动点1时，你需要停下，等待我的反馈。你的回复应当以json格式返回，格式为 {"key":value,...,"key":value} ：
1.故事续写的剧情文本对应的json标签名称为story 
2.互动点1提出的问题文本对应json标签为interact 
3.不要出现括号包含的暗示提示性文本
4.动物、人物不要出现出现名字，直接使用名词
story index: 1 chapter index: 1
before context:[]
after context:[{'role': 'user', 'content': '我需要给3-8岁的孩子讲故事。请扩充并讲述这个故事<小乌龟觉得自己的壳很麻烦，所以把壳丢进了河里，小熊发现龟壳可以吹笛，小鸟发现龟壳可以作为自己的巢。他们都感谢小乌龟，小乌龟觉得很开心”，我希望通过这个故事，教育孩子“不要歧视别人”、“珍惜自己的特点”>\n在故事中，设计互动点1：<小熊可以用壳做什么>，互动点2：<小鸟可以用壳做什么>.\n每一次扩充在250字以内，并且不论互动点1和2如何反馈，都能够传达教育信息。\n在互动点中，尽量将孩子的任何回答嵌入故事的发展，假如该回答完全无法嵌入故事，或者与问题毫无关系，请再重复一次互动点处生成的问题。\n假如孩子对讲故事这一活动本身有强烈的抗拒，请用耐心的语气劝导，并重复互动点生成的问题。\n现在讲述到互动点1时，你需要停下，等待我的反馈。你的回复应当以json格式返回，格式为 {"key":value,...,"key":value} ：\n1.故事续写的剧情文本对应的json标签名称为story \n2.互动点1提出的问题文本对应json标签为interact \n3.不要出现括号包含的暗示提示性文本\n4.动物、人物不要出现出现名字，直接使用名词'}, {'role': 'assistant', 'content': '{"story":"从前，有一只小乌龟，他总是觉得自己的壳又重又硬，走路时还会发出咚咚的声音，这让小乌龟感到非常麻烦。有一天，他决定把自己的壳悄悄丢进了村边的小河里。不久后，小熊在河边玩耍时发现了这个闪着光泽的龟壳。", "interact":"小朋友们，你们觉得小熊会用这个龟壳来做什么有趣的事情呢？"}'}]
trans text: 从前，有一只小乌龟，他总是觉得自己的壳又重又硬，走路时还会发出咚咚的声音，这让小乌龟感到非常麻烦。有一天，他决定把自己的壳悄悄丢进了村边的小河里。不久后，小熊在河边玩耍时发现了这个闪着光泽的龟壳。
------>开始发送文本数据
ws is closed
### error: on_close() takes 1 positional argument but 3 were given
trans text: 小朋友们，你们觉得小熊会用这个龟壳来做什么有趣的事情呢？
------>开始发送文本数据
ws is closed
### error: on_close() takes 1 positional argument but 3 were given
### error: on_close() takes 1 positional argument but 3 were given
### error: on_close() takes 1 positional argument but 3 were given
### error: on_close() takes 1 positional argument but 3 were given
set story index:3,chapter index:0
user_prompt: 对于互动点1的回答为 {你好，你好。} ，请生成反馈，生成反馈时需要注意以下几点：
1、及时给孩子肯定和赞美
2、帮助孩子补充此回答的细节
生成反馈后，讲述直到互动点2停下，等待孩子的反馈。
你的回复应当以纯json格式字符串返回，格式为 {"key":value,...,"key":value} ：
1.故事续写的剧情文本以及反馈对应标签名称为story 
2.互动点2提出的问题文本对应标签为interact 
3.不要出现括号包含的暗示提示性文本
4.动物、人物不要出现出现名字，直接使用名词
story index: 1 chapter index: 2
ffmpeg version 4.4.2-0ubuntu0.22.04.1 Copyright (c) 2000-2021 the FFmpeg developers
  built with gcc 11 (Ubuntu 11.2.0-19ubuntu1)
  configuration: --prefix=/usr --extra-version=0ubuntu0.22.04.1 --toolchain=hardened --libdir=/usr/lib/x86_64-linux-gnu --incdir=/usr/include/x86_64-linux-gnu --arch=amd64 --enable-gpl --disable-stripping --enable-gnutls --enable-ladspa --enable-libaom --enable-libass --enable-libbluray --enable-libbs2b --enable-libcaca --enable-libcdio --enable-libcodec2 --enable-libdav1d --enable-libflite --enable-libfontconfig --enable-libfreetype --enable-libfribidi --enable-libgme --enable-libgsm --enable-libjack --enable-libmp3lame --enable-libmysofa --enable-libopenjpeg --enable-libopenmpt --enable-libopus --enable-libpulse --enable-librabbitmq --enable-librubberband --enable-libshine --enable-libsnappy --enable-libsoxr --enable-libspeex --enable-libsrt --enable-libssh --enable-libtheora --enable-libtwolame --enable-libvidstab --enable-libvorbis --enable-libvpx --enable-libwebp --enable-libx265 --enable-libxml2 --enable-libxvid --enable-libzimg --enable-libzmq --enable-libzvbi --enable-lv2 --enable-omx --enable-openal --enable-opencl --enable-opengl --enable-sdl2 --enable-pocketsphinx --enable-librsvg --enable-libmfx --enable-libdc1394 --enable-libdrm --enable-libiec61883 --enable-chromaprint --enable-frei0r --enable-libx264 --enable-shared
  libavutil      56. 70.100 / 56. 70.100
  libavcodec     58.134.100 / 58.134.100
  libavformat    58. 76.100 / 58. 76.100
  libavdevice    58. 13.100 / 58. 13.100
  libavfilter     7.110.100 /  7.110.100
  libswscale      5.  9.100 /  5.  9.100
  libswresample   3.  9.100 /  3.  9.100
  libpostproc    55.  9.100 / 55.  9.100
[mp3 @ 0x55ed7e2b16c0] Estimating duration from bitrate, this may be inaccurate
Input #0, mp3, from './tmp/origin_temp_voice_2_text.mp3':
  Duration: 00:00:56.33, start: 0.000000, bitrate: 128 kb/s
  Stream #0:0: Audio: mp3, 48000 Hz, mono, fltp, 128 kb/s
Stream mapping:
  Stream #0:0 -> #0:0 (mp3 (mp3float) -> mp3 (libmp3lame))
Press [q] to stop, [?] for help
Output #0, mp3, to './tmp/convert_temp_voice_2_text.mp3':
  Metadata:
    TSSE            : Lavf58.76.100
  Stream #0:0: Audio: mp3, 16000 Hz, mono, fltp, 128 kb/s
    Metadata:
      encoder         : Lavc58.134.100 libmp3lame
size=       1kB time=00:00:00.00 bitrate=N/A speed=N/A    size=     882kB time=00:00:56.30 bitrate= 128.3kbits/s speed= 195x    
video:0kB audio:881kB subtitle:0kB other streams:0kB global headers:0kB muxing overhead: 0.068802%
ffmpeg version 4.4.2-0ubuntu0.22.04.1 Copyright (c) 2000-2021 the FFmpeg developers
  built with gcc 11 (Ubuntu 11.2.0-19ubuntu1)
  configuration: --prefix=/usr --extra-version=0ubuntu0.22.04.1 --toolchain=hardened --libdir=/usr/lib/x86_64-linux-gnu --incdir=/usr/include/x86_64-linux-gnu --arch=amd64 --enable-gpl --disable-stripping --enable-gnutls --enable-ladspa --enable-libaom --enable-libass --enable-libbluray --enable-libbs2b --enable-libcaca --enable-libcdio --enable-libcodec2 --enable-libdav1d --enable-libflite --enable-libfontconfig --enable-libfreetype --enable-libfribidi --enable-libgme --enable-libgsm --enable-libjack --enable-libmp3lame --enable-libmysofa --enable-libopenjpeg --enable-libopenmpt --enable-libopus --enable-libpulse --enable-librabbitmq --enable-librubberband --enable-libshine --enable-libsnappy --enable-libsoxr --enable-libspeex --enable-libsrt --enable-libssh --enable-libtheora --enable-libtwolame --enable-libvidstab --enable-libvorbis --enable-libvpx --enable-libwebp --enable-libx265 --enable-libxml2 --enable-libxvid --enable-libzimg --enable-libzmq --enable-libzvbi --enable-lv2 --enable-omx --enable-openal --enable-opencl --enable-opengl --enable-sdl2 --enable-pocketsphinx --enable-librsvg --enable-libmfx --enable-libdc1394 --enable-libdrm --enable-libiec61883 --enable-chromaprint --enable-frei0r --enable-libx264 --enable-shared
  libavutil      56. 70.100 / 56. 70.100
  libavcodec     58.134.100 / 58.134.100
  libavformat    58. 76.100 / 58. 76.100
  libavdevice    58. 13.100 / 58. 13.100
  libavfilter     7.110.100 /  7.110.100
  libswscale      5.  9.100 /  5.  9.100
  libswresample   3.  9.100 /  3.  9.100
  libpostproc    55.  9.100 / 55.  9.100
[mp3 @ 0x55b51da986c0] Estimating duration from bitrate, this may be inaccurate
Input #0, mp3, from './tmp/origin_temp_voice_2_text.mp3':
  Duration: 00:00:01.13, start: 0.000000, bitrate: 128 kb/s
  Stream #0:0: Audio: mp3, 48000 Hz, mono, fltp, 128 kb/s
Stream mapping:
  Stream #0:0 -> #0:0 (mp3 (mp3float) -> mp3 (libmp3lame))
Press [q] to stop, [?] for help
Output #0, mp3, to './tmp/convert_temp_voice_2_text.mp3':
  Metadata:
    TSSE            : Lavf58.76.100
  Stream #0:0: Audio: mp3, 16000 Hz, mono, fltp, 128 kb/s
    Metadata:
      encoder         : Lavc58.134.100 libmp3lame
size=       1kB time=00:00:00.00 bitrate=N/A speed=N/A    size=      20kB time=00:00:01.11 bitrate= 144.5kbits/s speed= 131x    
video:0kB audio:19kB subtitle:0kB other streams:0kB global headers:0kB muxing overhead: 3.170956%
user_prompt: 我需要给3-8岁的孩子讲故事。请扩充并讲述这个故事<小乌龟觉得自己的壳很麻烦，所以把壳丢进了河里，小熊发现龟壳可以吹笛，小鸟发现龟壳可以作为自己的巢。他们都感谢小乌龟，小乌龟觉得很开心”，我希望通过这个故事，教育孩子“不要歧视别人”、“珍惜自己的特点”>
在故事中，设计互动点1：<小熊可以用壳做什么>，互动点2：<小鸟可以用壳做什么>.
每一次扩充在250字以内，并且不论互动点1和2如何反馈，都能够传达教育信息。
在互动点中，尽量将孩子的任何回答嵌入故事的发展，假如该回答完全无法嵌入故事，或者与问题毫无关系，请再重复一次互动点处生成的问题。
假如孩子对讲故事这一活动本身有强烈的抗拒，请用耐心的语气劝导，并重复互动点生成的问题。
现在讲述到互动点1时，你需要停下，等待我的反馈。你的回复应当以json格式返回，格式为 {"key":value,...,"key":value} ：
1.故事续写的剧情文本对应的json标签名称为story 
2.互动点1提出的问题文本对应json标签为interact 
3.不要出现括号包含的暗示提示性文本
4.动物、人物不要出现出现名字，直接使用名词
story index: 1 chapter index: 1
before context:[]
after context:[{'role': 'user', 'content': '我需要给3-8岁的孩子讲故事。请扩充并讲述这个故事<小乌龟觉得自己的壳很麻烦，所以把壳丢进了河里，小熊发现龟壳可以吹笛，小鸟发现龟壳可以作为自己的巢。他们都感谢小乌龟，小乌龟觉得很开心”，我希望通过这个故事，教育孩子“不要歧视别人”、“珍惜自己的特点”>\n在故事中，设计互动点1：<小熊可以用壳做什么>，互动点2：<小鸟可以用壳做什么>.\n每一次扩充在250字以内，并且不论互动点1和2如何反馈，都能够传达教育信息。\n在互动点中，尽量将孩子的任何回答嵌入故事的发展，假如该回答完全无法嵌入故事，或者与问题毫无关系，请再重复一次互动点处生成的问题。\n假如孩子对讲故事这一活动本身有强烈的抗拒，请用耐心的语气劝导，并重复互动点生成的问题。\n现在讲述到互动点1时，你需要停下，等待我的反馈。你的回复应当以json格式返回，格式为 {"key":value,...,"key":value} ：\n1.故事续写的剧情文本对应的json标签名称为story \n2.互动点1提出的问题文本对应json标签为interact \n3.不要出现括号包含的暗示提示性文本\n4.动物、人物不要出现出现名字，直接使用名词'}, {'role': 'assistant', 'content': '{"story":"从前，有一只小乌龟，它总是觉得自己的壳又重又硬，非常麻烦。有一天，它决定把壳脱下来，丢进了附近的小河里。不久后，小熊在河边玩耍时发现了这个龟壳。","interact":"小朋友们，猜猜看，小熊会用这个龟壳来做些什么有趣的事情呢？"}'}]
trans text: 小朋友们，猜猜看，小熊会用这个龟壳来做些什么有趣的事情呢？
------>开始发送文本数据
ws is closed
### error: on_close() takes 1 positional argument but 3 were given
set story index:1,chapter index:1
set story index:1,chapter index:1
set story index:3,chapter index:0
clean history cache
clean history cache
user_prompt: 我需要给3-8岁的孩子讲故事。请扩充并讲述这个故事<小乌龟觉得自己的壳很麻烦，所以把壳丢进了河里，小熊发现龟壳可以吹笛，小鸟发现龟壳可以作为自己的巢。他们都感谢小乌龟，小乌龟觉得很开心”，我希望通过这个故事，教育孩子“不要歧视别人”、“珍惜自己的特点”>
在故事中，设计互动点1：<小熊可以用壳做什么>，互动点2：<小鸟可以用壳做什么>.
每一次扩充在250字以内，并且不论互动点1和2如何反馈，都能够传达教育信息。
在互动点中，尽量将孩子的任何回答嵌入故事的发展，假如该回答完全无法嵌入故事，或者与问题毫无关系，请再重复一次互动点处生成的问题。
假如孩子对讲故事这一活动本身有强烈的抗拒，请用耐心的语气劝导，并重复互动点生成的问题。
现在讲述到互动点1时，你需要停下，等待我的反馈。你的回复应当以json格式返回，格式为 {"key":value,...,"key":value} ：
1.故事续写的剧情文本对应的json标签名称为story 
2.互动点1提出的问题文本对应json标签为interact 
3.不要出现括号包含的暗示提示性文本
4.动物、人物不要出现出现名字，直接使用名词
story index: 1 chapter index: 1
before context:[]
after context:[{'role': 'user', 'content': '我需要给3-8岁的孩子讲故事。请扩充并讲述这个故事<小乌龟觉得自己的壳很麻烦，所以把壳丢进了河里，小熊发现龟壳可以吹笛，小鸟发现龟壳可以作为自己的巢。他们都感谢小乌龟，小乌龟觉得很开心”，我希望通过这个故事，教育孩子“不要歧视别人”、“珍惜自己的特点”>\n在故事中，设计互动点1：<小熊可以用壳做什么>，互动点2：<小鸟可以用壳做什么>.\n每一次扩充在250字以内，并且不论互动点1和2如何反馈，都能够传达教育信息。\n在互动点中，尽量将孩子的任何回答嵌入故事的发展，假如该回答完全无法嵌入故事，或者与问题毫无关系，请再重复一次互动点处生成的问题。\n假如孩子对讲故事这一活动本身有强烈的抗拒，请用耐心的语气劝导，并重复互动点生成的问题。\n现在讲述到互动点1时，你需要停下，等待我的反馈。你的回复应当以json格式返回，格式为 {"key":value,...,"key":value} ：\n1.故事续写的剧情文本对应的json标签名称为story \n2.互动点1提出的问题文本对应json标签为interact \n3.不要出现括号包含的暗示提示性文本\n4.动物、人物不要出现出现名字，直接使用名词'}, {'role': 'assistant', 'content': '{"story":"从前，有一只小乌龟，它总是觉得自己的壳又重又硬，非常麻烦。有一天，它决定把壳脱下来，丢进了附近的小河里。不久后，小熊在河边玩耍时发现了这个龟壳。","interact":"小朋友们，猜猜看，小熊会用这个龟壳来做些什么有趣的事情呢？"}'}]
trans text: 小朋友们，猜猜看，小熊会用这个龟壳来做些什么有趣的事情呢？
------>开始发送文本数据
ws is closed
### error: on_close() takes 1 positional argument but 3 were given
set story index:1,chapter index:2
set story index:1,chapter index:2
trans text: 你好，你好！真是个有礼貌的小朋友呢！小熊看到这么特别的龟壳，它想了想，觉得这圆圆的壳也许可以当成一个大大的乐器。
------>开始发送文本数据
ws is closed
### error: on_close() takes 1 positional argument but 3 were given
set story index:1,chapter index:2
user_prompt: 对于互动点1的回答为 {} ，请生成反馈，生成反馈时需要注意以下几点：
1、及时给孩子肯定和赞美
2、帮助孩子补充此回答的细节
生成反馈后，讲述直到互动点2停下，等待孩子的反馈。
你的回复应当以纯json格式字符串返回，格式为 {"key":value,...,"key":value} ：
1.故事续写的剧情文本以及反馈对应标签名称为story 
2.互动点2提出的问题文本对应标签为interact 
3.不要出现括号包含的暗示提示性文本
4.动物、人物不要出现出现名字，直接使用名词
story index: 1 chapter index: 2
before context:[{'role': 'user', 'content': '我需要给3-8岁的孩子讲故事。请扩充并讲述这个故事<小乌龟觉得自己的壳很麻烦，所以把壳丢进了河里，小熊发现龟壳可以吹笛，小鸟发现龟壳可以作为自己的巢。他们都感谢小乌龟，小乌龟觉得很开心”，我希望通过这个故事，教育孩子“不要歧视别人”、“珍惜自己的特点”>\n在故事中，设计互动点1：<小熊可以用壳做什么>，互动点2：<小鸟可以用壳做什么>.\n每一次扩充在250字以内，并且不论互动点1和2如何反馈，都能够传达教育信息。\n在互动点中，尽量将孩子的任何回答嵌入故事的发展，假如该回答完全无法嵌入故事，或者与问题毫无关系，请再重复一次互动点处生成的问题。\n假如孩子对讲故事这一活动本身有强烈的抗拒，请用耐心的语气劝导，并重复互动点生成的问题。\n现在讲述到互动点1时，你需要停下，等待我的反馈。你的回复应当以json格式返回，格式为 {"key":value,...,"key":value} ：\n1.故事续写的剧情文本对应的json标签名称为story \n2.互动点1提出的问题文本对应json标签为interact \n3.不要出现括号包含的暗示提示性文本\n4.动物、人物不要出现出现名字，直接使用名词'}, {'role': 'assistant', 'content': '{"story":"从前，有一只小乌龟，它总是觉得自己的壳又重又硬，非常麻烦。有一天，它决定把壳脱下来，丢进了附近的小河里。不久后，小熊在河边玩耍时发现了这个龟壳。","interact":"小朋友们，猜猜看，小熊会用这个龟壳来做些什么有趣的事情呢？"}'}]
after context:[{'role': 'user', 'content': '我需要给3-8岁的孩子讲故事。请扩充并讲述这个故事<小乌龟觉得自己的壳很麻烦，所以把壳丢进了河里，小熊发现龟壳可以吹笛，小鸟发现龟壳可以作为自己的巢。他们都感谢小乌龟，小乌龟觉得很开心”，我希望通过这个故事，教育孩子“不要歧视别人”、“珍惜自己的特点”>\n在故事中，设计互动点1：<小熊可以用壳做什么>，互动点2：<小鸟可以用壳做什么>.\n每一次扩充在250字以内，并且不论互动点1和2如何反馈，都能够传达教育信息。\n在互动点中，尽量将孩子的任何回答嵌入故事的发展，假如该回答完全无法嵌入故事，或者与问题毫无关系，请再重复一次互动点处生成的问题。\n假如孩子对讲故事这一活动本身有强烈的抗拒，请用耐心的语气劝导，并重复互动点生成的问题。\n现在讲述到互动点1时，你需要停下，等待我的反馈。你的回复应当以json格式返回，格式为 {"key":value,...,"key":value} ：\n1.故事续写的剧情文本对应的json标签名称为story \n2.互动点1提出的问题文本对应json标签为interact \n3.不要出现括号包含的暗示提示性文本\n4.动物、人物不要出现出现名字，直接使用名词'}, {'role': 'assistant', 'content': '{"story":"从前，有一只小乌龟，它总是觉得自己的壳又重又硬，非常麻烦。有一天，它决定把壳脱下来，丢进了附近的小河里。不久后，小熊在河边玩耍时发现了这个龟壳。","interact":"小朋友们，猜猜看，小熊会用这个龟壳来做些什么有趣的事情呢？"}'}, {'role': 'user', 'content': '对于互动点1的回答为 {你好，你好。} ，请生成反馈，生成反馈时需要注意以下几点：\n1、及时给孩子肯定和赞美\n2、帮助孩子补充此回答的细节\n生成反馈后，讲述直到互动点2停下，等待孩子的反馈。\n你的回复应当以纯json格式字符串返回，格式为 {"key":value,...,"key":value} ：\n1.故事续写的剧情文本以及反馈对应标签名称为story \n2.互动点2提出的问题文本对应标签为interact \n3.不要出现括号包含的暗示提示性文本\n4.动物、人物不要出现出现名字，直接使用名词'}, {'role': 'assistant', 'content': '{"story":"你好，你好！真是个有礼貌的小朋友呢！小熊看到这么特别的龟壳，它想了想，觉得这圆圆的壳也许可以当成一个大大的乐器。","interact":"那接下来，我们聪明的小鸟飞过来了，它看到龟壳，你觉得小鸟会用这个壳来做什么好事呢？会不会是它的新家，还是一个好玩的玩具呢？"}'}]
trans text: 接下来，小鸟飞了过来，它也被这个奇妙的龟壳吸引了。小朋友们，你们觉得小鸟会用这个龟壳做些什么有趣的事情？是不是也和小熊一样有创意呢？
------>开始发送文本数据
ws is closed
### error: on_close() takes 1 positional argument but 3 were given
### error: on_close() takes 1 positional argument but 3 were given
set story index:1,chapter index:2
set story index:1,chapter index:2
user_prompt: 对于互动点1的回答为 {} ，请生成反馈，生成反馈时需要注意以下几点：
1、及时给孩子肯定和赞美
2、帮助孩子补充此回答的细节
生成反馈后，讲述直到互动点2停下，等待孩子的反馈。
你的回复应当以纯json格式字符串返回，格式为 {"key":value,...,"key":value} ：
1.故事续写的剧情文本以及反馈对应标签名称为story 
2.互动点2提出的问题文本对应标签为interact 
3.不要出现括号包含的暗示提示性文本
4.动物、人物不要出现出现名字，直接使用名词
story index: 1 chapter index: 2
before context:[{'role': 'user', 'content': '我需要给3-8岁的孩子讲故事。请扩充并讲述这个故事<小乌龟觉得自己的壳很麻烦，所以把壳丢进了河里，小熊发现龟壳可以吹笛，小鸟发现龟壳可以作为自己的巢。他们都感谢小乌龟，小乌龟觉得很开心”，我希望通过这个故事，教育孩子“不要歧视别人”、“珍惜自己的特点”>\n在故事中，设计互动点1：<小熊可以用壳做什么>，互动点2：<小鸟可以用壳做什么>.\n每一次扩充在250字以内，并且不论互动点1和2如何反馈，都能够传达教育信息。\n在互动点中，尽量将孩子的任何回答嵌入故事的发展，假如该回答完全无法嵌入故事，或者与问题毫无关系，请再重复一次互动点处生成的问题。\n假如孩子对讲故事这一活动本身有强烈的抗拒，请用耐心的语气劝导，并重复互动点生成的问题。\n现在讲述到互动点1时，你需要停下，等待我的反馈。你的回复应当以json格式返回，格式为 {"key":value,...,"key":value} ：\n1.故事续写的剧情文本对应的json标签名称为story \n2.互动点1提出的问题文本对应json标签为interact \n3.不要出现括号包含的暗示提示性文本\n4.动物、人物不要出现出现名字，直接使用名词'}, {'role': 'assistant', 'content': '{"story":"从前，有一只小乌龟，它总是觉得自己的壳又重又硬，非常麻烦。有一天，它决定把壳脱下来，丢进了附近的小河里。不久后，小熊在河边玩耍时发现了这个龟壳。","interact":"小朋友们，猜猜看，小熊会用这个龟壳来做些什么有趣的事情呢？"}'}]
set story index:1,chapter index:1
trans text: 从前，有一只小乌龟，它总是觉得自己的壳又重又硬，非常麻烦。有一天，它决定把壳悄悄丢进了河里。不久，小熊在河边玩耍时发现了这个龟壳。
------>开始发送文本数据
ws is closed
### error: on_close() takes 1 positional argument but 3 were given
trans text: 从前，有一只小乌龟，它总是觉得自己的壳又重又硬，走路时还会发出咚咚的声音，这让它感到非常麻烦。有一天，小乌龟决定把自己的壳悄悄丢进了村边的小河里，想着这样就可以自由又轻松了。
------>开始发送文本数据
ws is closed
### error: on_close() takes 1 positional argument but 3 were given
set story index:1,chapter index:1
trans text: 从前，有一只小乌龟，它总是觉得自己的壳又重又硬，非常麻烦。有一天，它决定把壳脱下来，丢进了附近的小河里。不久后，小熊在河边玩耍时发现了这个龟壳。
------>开始发送文本数据
ws is closed
### error: on_close() takes 1 positional argument but 3 were given
set story index:1,chapter index:2
user_prompt: 对于互动点1的回答为 {你好，你好。} ，请生成反馈，生成反馈时需要注意以下几点：
1、及时给孩子肯定和赞美
2、帮助孩子补充此回答的细节
生成反馈后，讲述直到互动点2停下，等待孩子的反馈。
你的回复应当以纯json格式字符串返回，格式为 {"key":value,...,"key":value} ：
1.故事续写的剧情文本以及反馈对应标签名称为story 
2.互动点2提出的问题文本对应标签为interact 
3.不要出现括号包含的暗示提示性文本
4.动物、人物不要出现出现名字，直接使用名词
story index: 1 chapter index: 2
before context:[{'role': 'user', 'content': '我需要给3-8岁的孩子讲故事。请扩充并讲述这个故事<小乌龟觉得自己的壳很麻烦，所以把壳丢进了河里，小熊发现龟壳可以吹笛，小鸟发现龟壳可以作为自己的巢。他们都感谢小乌龟，小乌龟觉得很开心”，我希望通过这个故事，教育孩子“不要歧视别人”、“珍惜自己的特点”>\n在故事中，设计互动点1：<小熊可以用壳做什么>，互动点2：<小鸟可以用壳做什么>.\n每一次扩充在250字以内，并且不论互动点1和2如何反馈，都能够传达教育信息。\n在互动点中，尽量将孩子的任何回答嵌入故事的发展，假如该回答完全无法嵌入故事，或者与问题毫无关系，请再重复一次互动点处生成的问题。\n假如孩子对讲故事这一活动本身有强烈的抗拒，请用耐心的语气劝导，并重复互动点生成的问题。\n现在讲述到互动点1时，你需要停下，等待我的反馈。你的回复应当以json格式返回，格式为 {"key":value,...,"key":value} ：\n1.故事续写的剧情文本对应的json标签名称为story \n2.互动点1提出的问题文本对应json标签为interact \n3.不要出现括号包含的暗示提示性文本\n4.动物、人物不要出现出现名字，直接使用名词'}, {'role': 'assistant', 'content': '{"story":"从前，有一只小乌龟，它总是觉得自己的壳又重又硬，非常麻烦。有一天，它决定把壳脱下来，丢进了附近的小河里。不久后，小熊在河边玩耍时发现了这个龟壳。","interact":"小朋友们，猜猜看，小熊会用这个龟壳来做些什么有趣的事情呢？"}'}]
after context:[{'role': 'user', 'content': '我需要给3-8岁的孩子讲故事。请扩充并讲述这个故事<小乌龟觉得自己的壳很麻烦，所以把壳丢进了河里，小熊发现龟壳可以吹笛，小鸟发现龟壳可以作为自己的巢。他们都感谢小乌龟，小乌龟觉得很开心”，我希望通过这个故事，教育孩子“不要歧视别人”、“珍惜自己的特点”>\n在故事中，设计互动点1：<小熊可以用壳做什么>，互动点2：<小鸟可以用壳做什么>.\n每一次扩充在250字以内，并且不论互动点1和2如何反馈，都能够传达教育信息。\n在互动点中，尽量将孩子的任何回答嵌入故事的发展，假如该回答完全无法嵌入故事，或者与问题毫无关系，请再重复一次互动点处生成的问题。\n假如孩子对讲故事这一活动本身有强烈的抗拒，请用耐心的语气劝导，并重复互动点生成的问题。\n现在讲述到互动点1时，你需要停下，等待我的反馈。你的回复应当以json格式返回，格式为 {"key":value,...,"key":value} ：\n1.故事续写的剧情文本对应的json标签名称为story \n2.互动点1提出的问题文本对应json标签为interact \n3.不要出现括号包含的暗示提示性文本\n4.动物、人物不要出现出现名字，直接使用名词'}, {'role': 'assistant', 'content': '{"story":"从前，有一只小乌龟，它总是觉得自己的壳又重又硬，非常麻烦。有一天，它决定把壳脱下来，丢进了附近的小河里。不久后，小熊在河边玩耍时发现了这个龟壳。","interact":"小朋友们，猜猜看，小熊会用这个龟壳来做些什么有趣的事情呢？"}'}, {'role': 'user', 'content': '对于互动点1的回答为 {你好，你好。} ，请生成反馈，生成反馈时需要注意以下几点：\n1、及时给孩子肯定和赞美\n2、帮助孩子补充此回答的细节\n生成反馈后，讲述直到互动点2停下，等待孩子的反馈。\n你的回复应当以纯json格式字符串返回，格式为 {"key":value,...,"key":value} ：\n1.故事续写的剧情文本以及反馈对应标签名称为story \n2.互动点2提出的问题文本对应标签为interact \n3.不要出现括号包含的暗示提示性文本\n4.动物、人物不要出现出现名字，直接使用名词'}, {'role': 'assistant', 'content': '{"story":"你好，你好！真是个有礼貌的小朋友呢！小熊看到这么特别的龟壳，它想，这个圆圆的壳，中间还有个小洞，能不能当成乐器来吹呢？于是，小熊试着把壳拿到嘴边，轻轻一吹，竟然发出了美妙的声音，就像在吹笛子一样！小熊高兴极了，它有了一个新的音乐伙伴。","interact":"接下来，小鸟飞了过来，它也被这个奇妙的龟壳吸引了。小朋友们，你们觉得小鸟会用这个龟壳做些什么有趣的事情？是不是也和小熊一样有创意呢？"}'}]
clean history cache
clean history cache
clean history cache
set story index:1,chapter index:0
set story index:1,chapter index:0
set story index:1,chapter index:1
trans text: 从前，有一只小乌龟，他总是觉得自己的壳又重又硬，非常麻烦。有一天，他决定把壳脱下来，丢进了附近的小河里。不久后，小熊在河边玩耍时发现了这个闪亮的龟壳。
------>开始发送文本数据
ws is closed
### error: on_close() takes 1 positional argument but 3 were given
clean history cache
user_prompt: before context:[{'role': 'user', 'content': '我需要给3-8岁的孩子讲故事。请扩充并讲述这个故事<小乌龟觉得自己的壳很麻烦，所以把壳丢进了河里，小熊发现龟壳可以吹笛，小鸟发现龟壳可以作为自己的巢。他们都感谢小乌龟，小乌龟觉得很开心”，我希望通过这个故事，教育孩子“不要歧视别人”、“珍惜自己的特点”>\n在故事中，设计互动点1：<小熊可以用壳做什么>，互动点2：<小鸟可以用壳做什么>.\n每一次扩充在250字以内，并且不论互动点1和2如何反馈，都能够传达教育信息。\n在互动点中，尽量将孩子的任何回答嵌入故事的发展，假如该回答完全无法嵌入故事，或者与问题毫无关系，请再重复一次互动点处生成的问题。\n假如孩子对讲故事这一活动本身有强烈的抗拒，请用耐心的语气劝导，并重复互动点生成的问题。\n现在讲述到互动点1时，你需要停下，等待我的反馈。你的回复应当以json格式返回，格式为 {"key":value,...,"key":value} ：\n1.故事续写的剧情文本对应的json标签名称为story \n2.互动点1提出的问题文本对应json标签为interact \n3.不要出现括号包含的暗示提示性文本\n4.动物、人物不要出现出现名字，直接使用名词'}, {'role': 'assistant', 'content': '{"story":"从前，有一只小乌龟，它总是觉得自己的壳又重又硬，非常麻烦。有一天，它决定把壳脱下来，丢进了附近的小河里。不久后，小熊在河边玩耍时发现了这个龟壳。","interact":"小朋友们，猜猜看，小熊会用这个龟壳来做些什么有趣的事情呢？"}'}]
after context:[{'role': 'user', 'content': '我需要给3-8岁的孩子讲故事。请扩充并讲述这个故事<小乌龟觉得自己的壳很麻烦，所以把壳丢进了河里，小熊发现龟壳可以吹笛，小鸟发现龟壳可以作为自己的巢。他们都感谢小乌龟，小乌龟觉得很开心”，我希望通过这个故事，教育孩子“不要歧视别人”、“珍惜自己的特点”>\n在故事中，设计互动点1：<小熊可以用壳做什么>，互动点2：<小鸟可以用壳做什么>.\n每一次扩充在250字以内，并且不论互动点1和2如何反馈，都能够传达教育信息。\n在互动点中，尽量将孩子的任何回答嵌入故事的发展，假如该回答完全无法嵌入故事，或者与问题毫无关系，请再重复一次互动点处生成的问题。\n假如孩子对讲故事这一活动本身有强烈的抗拒，请用耐心的语气劝导，并重复互动点生成的问题。\n现在讲述到互动点1时，你需要停下，等待我的反馈。你的回复应当以json格式返回，格式为 {"key":value,...,"key":value} ：\n1.故事续写的剧情文本对应的json标签名称为story \n2.互动点1提出的问题文本对应json标签为interact \n3.不要出现括号包含的暗示提示性文本\n4.动物、人物不要出现出现名字，直接使用名词'}, {'role': 'assistant', 'content': '{"story":"从前，有一只小乌龟，它总是觉得自己的壳又重又硬，非常麻烦。有一天，它决定把壳脱下来，丢进了附近的小河里。不久后，小熊在河边玩耍时发现了这个龟壳。","interact":"小朋友们，猜猜看，小熊会用这个龟壳来做些什么有趣的事情呢？"}'}, {'role': 'user', 'content': '对于互动点1的回答为 {} ，请生成反馈，生成反馈时需要注意以下几点：\n1、及时给孩子肯定和赞美\n2、帮助孩子补充此回答的细节\n生成反馈后，讲述直到互动点2停下，等待孩子的反馈。\n你的回复应当以纯json格式字符串返回，格式为 {"key":value,...,"key":value} ：\n1.故事续写的剧情文本以及反馈对应标签名称为story \n2.互动点2提出的问题文本对应标签为interact \n3.不要出现括号包含的暗示提示性文本\n4.动物、人物不要出现出现名字，直接使用名词'}, {'role': 'assistant', 'content': '{"story":"小朋友们的想法真奇妙！小熊捡起龟壳，发现它圆圆的，有许多洞，突然有了个好主意。它把龟壳当成了一件特别的乐器，吹出了悠扬的声音，就像在吹笛子一样动听。森林里的朋友们都被这美妙的音乐吸引了过来。","interact":"那么，小鸟看到这个龟壳时，又会想到用它来做什么呢？让我们一起想想，小鸟的新家会是什么样子的？"}'}]
trans text: 小朋友们的想法真奇妙！小熊捡起龟壳，发现它圆圆的，有许多洞，突然有了个好主意。它把龟壳当成了一件特别的乐器，吹出了悠扬的声音，就像在吹笛子一样动听。森林里的朋友们都被这美妙的音乐吸引了过来。
------>开始发送文本数据
ws is closed
### error: on_close() takes 1 positional argument but 3 were given
set story index:1,chapter index:1
trans text: 从前，有一只小乌龟，它总是觉得自己的壳又重又硬，走路时还会发出咚咚的声音，这让它感到非常麻烦。有一天，小乌龟决定把自己的壳脱下来，丢进了附近的小河里。壳漂啊漂，不一会儿就被河边玩耍的小熊发现了。
------>开始发送文本数据
ws is closed
### error: on_close() takes 1 positional argument but 3 were given
set story index:1,chapter index:0
set story index:1,chapter index:0
set story index:1,chapter index:0
set story index:1,chapter index:0
set story index:1,chapter index:0
clean history cache
clean history cache
trans text: 小熊看了看龟壳，你觉得小熊能用这个龟壳做些什么有趣的事情呢？
------>开始发送文本数据
ws is closed
### error: on_close() takes 1 positional argument but 3 were given
user_prompt: 我需要给3-8岁的孩子讲故事。请扩充并讲述这个故事<小乌龟觉得自己的壳很麻烦，所以把壳丢进了河里，小熊发现龟壳可以吹笛，小鸟发现龟壳可以作为自己的巢。他们都感谢小乌龟，小乌龟觉得很开心”，我希望通过这个故事，教育孩子“不要歧视别人”、“珍惜自己的特点”>
在故事中，设计互动点1：<小熊可以用壳做什么>，互动点2：<小鸟可以用壳做什么>.
每一次扩充在250字以内，并且不论互动点1和2如何反馈，都能够传达教育信息。
在互动点中，尽量将孩子的任何回答嵌入故事的发展，假如该回答完全无法嵌入故事，或者与问题毫无关系，请再重复一次互动点处生成的问题。
假如孩子对讲故事这一活动本身有强烈的抗拒，请用耐心的语气劝导，并重复互动点生成的问题。
现在讲述到互动点1时，你需要停下，等待我的反馈。你的回复应当以json格式返回，格式为 {"key":value,...,"key":value} ：
1.故事续写的剧情文本对应的json标签名称为story 
2.互动点1提出的问题文本对应json标签为interact 
3.不要出现括号包含的暗示提示性文本
4.动物、人物不要出现出现名字，直接使用名词
story index: 1 chapter index: 1
before context:[]
clean history cache
trans text: 小朋友们，你们觉得小熊会用这个龟壳来做些什么有趣的事情呢？
------>开始发送文本数据
ws is closed
### error: on_close() takes 1 positional argument but 3 were given
clean history cache
set story index:1,chapter index:0
user_prompt: 我需要给3-8岁的孩子讲故事。请扩充并讲述这个故事<小乌龟觉得自己的壳很麻烦，所以把壳丢进了河里，小熊发现龟壳可以吹笛，小鸟发现龟壳可以作为自己的巢。他们都感谢小乌龟，小乌龟觉得很开心”，我希望通过这个故事，教育孩子“不要歧视别人”、“珍惜自己的特点”>
在故事中，设计互动点1：<小熊可以用壳做什么>，互动点2：<小鸟可以用壳做什么>.
每一次扩充在250字以内，并且不论互动点1和2如何反馈，都能够传达教育信息。
在互动点中，尽量将孩子的任何回答嵌入故事的发展，假如该回答完全无法嵌入故事，或者与问题毫无关系，请再重复一次互动点处生成的问题。
假如孩子对讲故事这一活动本身有强烈的抗拒，请用耐心的语气劝导，并重复互动点生成的问题。
现在讲述到互动点1时，你需要停下，等待我的反馈。你的回复应当以json格式返回，格式为 {"key":value,...,"key":value} ：
1.故事续写的剧情文本对应的json标签名称为story 
2.互动点1提出的问题文本对应json标签为interact 
3.不要出现括号包含的暗示提示性文本
4.动物、人物不要出现出现名字，直接使用名词
story index: 1 chapter index: 1
before context:[]
after context:[{'role': 'user', 'content': '我需要给3-8岁的孩子讲故事。请扩充并讲述这个故事<小乌龟觉得自己的壳很麻烦，所以把壳丢进了河里，小熊发现龟壳可以吹笛，小鸟发现龟壳可以作为自己的巢。他们都感谢小乌龟，小乌龟觉得很开心”，我希望通过这个故事，教育孩子“不要歧视别人”、“珍惜自己的特点”>\n在故事中，设计互动点1：<小熊可以用壳做什么>，互动点2：<小鸟可以用壳做什么>.\n每一次扩充在250字以内，并且不论互动点1和2如何反馈，都能够传达教育信息。\n在互动点中，尽量将孩子的任何回答嵌入故事的发展，假如该回答完全无法嵌入故事，或者与问题毫无关系，请再重复一次互动点处生成的问题。\n假如孩子对讲故事这一活动本身有强烈的抗拒，请用耐心的语气劝导，并重复互动点生成的问题。\n现在讲述到互动点1时，你需要停下，等待我的反馈。你的回复应当以json格式返回，格式为 {"key":value,...,"key":value} ：\n1.故事续写的剧情文本对应的json标签名称为story \n2.互动点1提出的问题文本对应json标签为interact \n3.不要出现括号包含的暗示提示性文本\n4.动物、人物不要出现出现名字，直接使用名词'}, {'role': 'assistant', 'content': '{"story":"从前，有一只小乌龟，它总是觉得自己的壳又重又硬，走路时还会发出咚咚的声音，这让它感到非常麻烦。有一天，小乌龟决定把自己的壳悄悄丢进了村边的小河里，想着这样就可以自由又轻松了。","interact":"小熊在河边玩耍时，发现了这个漂浮的龟壳。小朋友，你觉得小熊会用这个龟壳来做什么有趣的事情呢？"}'}]
trans text: 小熊在河边玩耍时，发现了这个漂浮的龟壳。小朋友，你觉得小熊会用这个龟壳来做什么有趣的事情呢？
------>开始发送文本数据
ws is closed
### error: on_close() takes 1 positional argument but 3 were given
set story index:1,chapter index:1
clean history cache
set story index:1,chapter index:1
### error: on_close() takes 1 positional argument but 3 were given
### error: on_close() takes 1 positional argument but 3 were given
trans text: 那接下来，我们聪明的小鸟飞过来了，它看到龟壳，你觉得小鸟会用这个壳来做什么好事呢？会不会是它的新家，还是一个好玩的玩具呢？
------>开始发送文本数据
ws is closed
### error: on_close() takes 1 positional argument but 3 were given
set story index:1,chapter index:2
trans text: 你好，你好！真是个有礼貌的小朋友呢！小熊看到这么特别的龟壳，它想，这个圆圆的壳，中间还有个小洞，能不能当成乐器来吹呢？于是，小熊试着把壳拿到嘴边，轻轻一吹，竟然发出了美妙的声音，就像在吹笛子一样！小熊高兴极了，它有了一个新的音乐伙伴。
------>开始发送文本数据
ws is closed
### error: on_close() takes 1 positional argument but 3 were given
### error: on_close() takes 1 positional argument but 3 were given
set story index:1,chapter index:0
set story index:1,chapter index:0
set story index:1,chapter index:1
set story index:1,chapter index:1
set story index:1,chapter index:0
set story index:1,chapter index:0
user_prompt: 我需要给3-8岁的孩子讲故事。请扩充并讲述这个故事<小乌龟觉得自己的壳很麻烦，所以把壳丢进了河里，小熊发现龟壳可以吹笛，小鸟发现龟壳可以作为自己的巢。他们都感谢小乌龟，小乌龟觉得很开心”，我希望通过这个故事，教育孩子“不要歧视别人”、“珍惜自己的特点”>
在故事中，设计互动点1：<小熊可以用壳做什么>，互动点2：<小鸟可以用壳做什么>.
每一次扩充在250字以内，并且不论互动点1和2如何反馈，都能够传达教育信息。
在互动点中，尽量将孩子的任何回答嵌入故事的发展，假如该回答完全无法嵌入故事，或者与问题毫无关系，请再重复一次互动点处生成的问题。
假如孩子对讲故事这一活动本身有强烈的抗拒，请用耐心的语气劝导，并重复互动点生成的问题。
现在讲述到互动点1时，你需要停下，等待我的反馈。你的回复应当以json格式返回，格式为 {"key":value,...,"key":value} ：
1.故事续写的剧情文本对应的json标签名称为story 
2.互动点1提出的问题文本对应json标签为interact 
3.不要出现括号包含的暗示提示性文本
4.动物、人物不要出现出现名字，直接使用名词
story index: 1 chapter index: 1
before context:[]
after context:[{'role': 'user', 'content': '我需要给3-8岁的孩子讲故事。请扩充并讲述这个故事<小乌龟觉得自己的壳很麻烦，所以把壳丢进了河里，小熊发现龟壳可以吹笛，小鸟发现龟壳可以作为自己的巢。他们都感谢小乌龟，小乌龟觉得很开心”，我希望通过这个故事，教育孩子“不要歧视别人”、“珍惜自己的特点”>\n在故事中，设计互动点1：<小熊可以用壳做什么>，互动点2：<小鸟可以用壳做什么>.\n每一次扩充在250字以内，并且不论互动点1和2如何反馈，都能够传达教育信息。\n在互动点中，尽量将孩子的任何回答嵌入故事的发展，假如该回答完全无法嵌入故事，或者与问题毫无关系，请再重复一次互动点处生成的问题。\n假如孩子对讲故事这一活动本身有强烈的抗拒，请用耐心的语气劝导，并重复互动点生成的问题。\n现在讲述到互动点1时，你需要停下，等待我的反馈。你的回复应当以json格式返回，格式为 {"key":value,...,"key":value} ：\n1.故事续写的剧情文本对应的json标签名称为story \n2.互动点1提出的问题文本对应json标签为interact \n3.不要出现括号包含的暗示提示性文本\n4.动物、人物不要出现出现名字，直接使用名词'}, {'role': 'assistant', 'content': '{"story":"从前，有一只小乌龟，他总是觉得自己的壳又重又硬，非常麻烦。有一天，他决定把壳脱下来，丢进了附近的小河里。不久后，小熊在河边玩耍时发现了这个闪亮的龟壳。","interact":"小熊看了看龟壳，你觉得小熊能用这个龟壳做些什么有趣的事情呢？"}'}]
set story index:1,chapter index:1
